<svg version="1.2" xmlns="http://www.w3.org/2000/svg" viewBox="0 0 25 25" width="25" height="25">
	<title>iconoSpotify</title>
	<style>
		.s0 { fill: none } 
		.s1 { fill: #10bc4c } 
	</style>
	<g id="_x34__stroke">
		<g id="Spotify_1_">
			<path fill-rule="evenodd" class="s0" d="m25 0v25h-25v-25z"/>
			<path id="Spotify" fill-rule="evenodd" class="s1" d="m12.5 25c-6.9 0-12.5-5.6-12.5-12.5 0-6.9 5.6-12.5 12.5-12.5 6.9 0 12.5 5.6 12.5 12.5 0 6.9-5.6 12.5-12.5 12.5zm5.4-8c-3.2-2-7.4-2.4-12.1-1.3-0.4 0.1-0.7 0.4-0.6 0.9 0.2 0.3 0.5 0.7 1 0.6 4.3-1 8-0.7 11 1.1 0.3 0.3 0.8 0.1 1-0.2 0.2-0.4 0.2-0.9-0.3-1.1zm1.6-3.7c-3.9-2.3-9.5-3-14.1-1.6-0.5 0.1-0.7 0.6-0.6 1.1 0.1 0.5 0.7 0.8 1.2 0.7 3.9-1.2 9-0.7 12.4 1.4 0.5 0.4 1 0.1 1.3-0.3 0.3-0.4 0.2-1.1-0.2-1.3zm2-2.5c0.3-0.5 0.1-1.3-0.5-1.6-4.5-2.7-11.9-3-16.3-1.7-0.6 0.2-1 0.8-0.8 1.5 0.2 0.5 0.8 0.9 1.5 0.7 3.8-1.2 10.5-0.9 14.5 1.5 0.5 0.3 1.3 0.1 1.6-0.4z"/>
		</g>
	</g>
</svg>