<svg version="1.2" xmlns="http://www.w3.org/2000/svg" viewBox="0 0 50 50" width="50" height="50">
	<title>iconoSpotify</title>
	<style>
		.s0 { fill: none } 
		.s1 { fill: #10bc4c } 
	</style>
	<g id="_x34__stroke">
		<g id="Spotify_1_">
			<path fill-rule="evenodd" class="s0" d="m50 0v50h-50v-50z"/>
			<path id="Spotify" fill-rule="evenodd" class="s1" d="m25 50c-13.8 0-25-11.2-25-25 0-13.8 11.2-25 25-25 13.8 0 25 11.2 25 25 0 13.8-11.2 25-25 25zm10.9-16c-6.5-4-14.8-4.9-24.3-2.7-0.7 0.2-1.3 1-1.1 1.8 0.3 0.8 1 1.4 1.9 1.2 8.7-2 16.1-1.3 22 2.3 0.7 0.5 1.6 0.3 2.1-0.5 0.4-0.7 0.3-1.7-0.6-2.1zm3.1-7.3c-7.8-4.7-19-6.1-28.1-3.3-1 0.2-1.5 1.3-1.3 2.3 0.3 1 1.4 1.5 2.4 1.3 7.9-2.5 18.1-1.3 24.9 2.9 0.9 0.6 2 0.2 2.6-0.6 0.6-0.9 0.3-2.2-0.5-2.6zm4-5.1c0.6-1.1 0.3-2.6-0.9-3.2-9.2-5.5-23.8-6-32.7-3.4-1.1 0.4-1.9 1.6-1.5 2.9 0.4 1.1 1.6 1.9 2.9 1.5 7.6-2.4 21-1.9 29 2.9 1.1 0.6 2.6 0.2 3.2-0.7z"/>
		</g>
	</g>
</svg>